<?xml version="1.0" encoding="utf-8"?>
<!-- Generator: Adobe Illustrator 19.2.0, SVG Export Plug-In . SVG Version: 6.00 Build 0)  -->
<svg version="1.1" id="Instagram" xmlns="http://www.w3.org/2000/svg" xmlns:xlink="http://www.w3.org/1999/xlink" x="0px" y="0px"
	 viewBox="0 0 80 80" style="enable-background:new 0 0 80 80;" xml:space="preserve">
<style type="text/css">
	.st0{fill:#FFFFFF;}
	.st1{opacity:0.75;fill:#FFFFFF;enable-background:new    ;}
</style>
<title>Instagram</title>
<path id="_100" class="st0" d="M40,13.8c8.5,0,9.6,0,12.9,0.2c2,0,4,0.4,5.9,1.1c2.8,1.1,5,3.3,6.1,6.1c0.7,1.9,1,3.9,1.1,5.9
	c0.2,3.4,0.2,4.4,0.2,12.9s0,9.6-0.2,12.9c0,2-0.4,4-1.1,5.9c-1.1,2.8-3.3,5-6.1,6.1c-1.9,0.7-3.9,1-5.9,1.1
	c-3.4,0.2-4.4,0.2-12.9,0.2s-9.6,0-12.9-0.2c-2,0-4-0.4-5.9-1.1c-2.8-1.1-5-3.3-6.1-6.1c-0.7-1.9-1-3.9-1.1-5.9
	c-0.1-3.4-0.2-4.4-0.2-12.9s0-9.6,0.2-12.9c0-2,0.4-4,1.1-5.9c1.1-2.8,3.3-5,6.1-6.1c1.9-0.7,3.9-1,5.9-1.1
	C30.4,13.9,31.5,13.8,40,13.8 M40,8c-8.7,0-9.8,0-13.2,0.2c-2.7,0-5.3,0.6-7.8,1.5c-4.3,1.7-7.7,5-9.3,9.3c-0.9,2.5-1.4,5.1-1.5,7.8
	C8,30.2,8,31.3,8,40s0,9.8,0.2,13.2c0,2.7,0.6,5.3,1.5,7.8c1.7,4.3,5,7.7,9.3,9.3c2.5,0.9,5.1,1.4,7.8,1.5C30.2,72,31.3,72,40,72
	s9.8,0,13.2-0.2c2.7,0,5.3-0.6,7.8-1.5c4.3-1.7,7.7-5,9.3-9.3c0.9-2.5,1.4-5.1,1.5-7.8C72,49.8,72,48.7,72,40s0-9.8-0.2-13.2
	c0-2.7-0.6-5.3-1.5-7.8c-1.7-4.3-5-7.7-9.3-9.3c-2.5-0.9-5.1-1.4-7.8-1.5C49.8,8,48.7,8,40,8L40,8z"/>
<path id="_75" class="st1" d="M40,23.6c-9.1,0-16.4,7.4-16.4,16.4S30.9,56.4,40,56.4S56.4,49.1,56.4,40l0,0
	C56.4,30.9,49.1,23.6,40,23.6z M40,50.7c-5.9,0-10.7-4.8-10.7-10.7c0-5.9,4.8-10.7,10.7-10.7c5.9,0,10.7,4.8,10.7,10.7v0
	C50.7,45.9,45.9,50.7,40,50.7z"/>
<circle id="_75-2" class="st1" cx="57.1" cy="22.9" r="3.8"/>
</svg>
