<svg id="Logo" xmlns="http://www.w3.org/2000/svg" viewBox="0 0 256 176"><defs><style>.cls-1{fill:#3232fa;}.cls-2{fill:#fff;}</style></defs><title>Logo</title><path class="cls-1" d="M32,176A32,32,0,0,1,9.37,121.37l112-112A32,32,0,0,1,176,32v80h48a32,32,0,0,1,0,64H144a32,32,0,0,1-32-32V109.25L54.63,166.63A31.9,31.9,0,0,1,32,176Z" transform="translate(0 0)"/><path class="cls-2" d="M32,160a16,16,0,0,1-11.31-27.31l112-112A16,16,0,0,1,160,32v96h64a16,16,0,0,1,0,32H144a16,16,0,0,1-16-16V70.63L43.31,155.31A16,16,0,0,1,32,160Z" transform="translate(0 0)"/></svg>