<svg id="Layer_1" data-name="Layer 1" xmlns="http://www.w3.org/2000/svg" viewBox="0 0 512 512"><defs><style>.cls-1{fill:#001a4d;}.cls-2{fill:#121e59;}</style></defs><title>Pattern</title><rect class="cls-1" width="512" height="512"/><polygon class="cls-2" points="272 512 272 480.06 144 481.06 144 352 16 352 16 224 0 224 0 240 0 368 128 368 128 496.94 256 495.94 256 512 272 512"/><polygon class="cls-2" points="32 512 48 512 48 448 0 448 0 464 32 464 32 512"/><polygon class="cls-2" points="0 384 0 400 96 400 96 512 112 512 112 384 0 384"/><polygon class="cls-2" points="16 512 16 480 0 480 0 496 0 512 16 512"/><polygon class="cls-2" points="512 464 512 448 432 448 432 320.06 304 321.06 304 192 176 192 176 64 48 64 48 0 32 0 32 80 160 80 160 208 288 208 288 336.94 416 335.94 416 464 512 464"/><polygon class="cls-2" points="0 432 64 432 64 512 80 512 80 416 0 416 0 432"/><polygon class="cls-2" points="0 128 0 144 96 144 96 272 224 272 224 400.94 352 399.94 352 512 368 512 368 384.06 240 385.06 240 256 112 256 112 128 0 128"/><polygon class="cls-2" points="0 160 0 176 64 176 64 304 192 304 192 432.94 320 431.94 320 512 336 512 336 416.06 208 417.06 208 288 80 288 80 160 0 160"/><polygon class="cls-2" points="464 416 464 288.06 336 289.06 336 160 208 160 208 32 80 32 80 0 64 0 64 48 192 48 192 176 320 176 320 304.94 448 303.94 448 432 512 432 512 416 464 416"/><polygon class="cls-2" points="496 384 496 256.06 368 257.06 368 128 240 128 240 0 112 0 96 0 96 16 224 16 224 144 352 144 352 272.94 480 271.94 480 400 512 400 512 384 496 384"/><polygon class="cls-2" points="400 480 400 352.06 272 353.06 272 224 144 224 144 96 16 96 16 0 0 0 0 112 128 112 128 240 256 240 256 368.94 384 367.94 384 496 512 496 512 480 400 480"/><polygon class="cls-2" points="496 0 368 0 352 0 352 16 480 16 480 144.94 512 144.69 512 128.94 496 129.06 496 0"/><polygon class="cls-2" points="432 64 304 64 304 0 288 0 288 80 416 80 416 208.94 512 208.19 512 192.44 432 193.06 432 64"/><polygon class="cls-2" points="512 239.94 512 224.19 400 225.06 400 96 272 96 272 0 256 0 256 112 384 112 384 240.94 512 239.94"/><polygon class="cls-2" points="304 512 304 448.06 176 449.06 176 320 48 320 48 192 0 192 0 208 32 208 32 336 160 336 160 464.94 288 463.94 288 512 304 512"/><polygon class="cls-2" points="464 32 336 32 336 0 320 0 320 48 448 48 448 176.94 512 176.44 512 160.69 464 161.06 464 32"/></svg>