<?xml version="1.0" encoding="utf-8"?>
<!-- Generator: Adobe Illustrator 19.2.0, SVG Export Plug-In . SVG Version: 6.00 Build 0)  -->
<svg version="1.1" id="Layer_1" xmlns="http://www.w3.org/2000/svg" xmlns:xlink="http://www.w3.org/1999/xlink" x="0px" y="0px"
	 viewBox="0 0 80 80" style="enable-background:new 0 0 80 80;" xml:space="preserve">
<style type="text/css">
	.st0{fill:#FFFFFF;}
	.st1{opacity:0.75;fill:#FFFFFF;enable-background:new    ;}
</style>
<title>PayPal</title>
<path id="_100" class="st0" d="M63,24c0,16.9-15.8,22-24,22h-5c-1.4,0-2.5,1.2-3,3c0,0-2,15.6-2,16c-0.1,1-1,1.9-2,2H16
	c-1.1,0-2-0.9-2-2l8-50c0.6-3.8,2.4-5,5-5h18C62,10,63,18.3,63,24z"/>
<path id="_75" class="st1" d="M70,31c0,16.9-15.8,22-24,22h-5c-1.4,0-2.5,1.2-3,3c0,0-2,15.6-2,16c-0.1,1-1,1.9-2,2H23
	c-1.1,0-2-0.9-2-2l8-50c0.6-3.8,2.4-5,5-5h18C69,17,70,25.3,70,31z"/>
</svg>
