<?xml version="1.0" encoding="utf-8"?>
<!-- Generator: Adobe Illustrator 19.2.0, SVG Export Plug-In . SVG Version: 6.00 Build 0)  -->
<svg version="1.1" id="Logo" xmlns="http://www.w3.org/2000/svg" xmlns:xlink="http://www.w3.org/1999/xlink" x="0px" y="0px"
	 viewBox="0 0 2048 2048" style="enable-background:new 0 0 2048 2048;" xml:space="preserve">
<style type="text/css">
	.st0{fill:#FFEED9;}
	.st1{fill:#3232FA;}
	.st2{fill:none;stroke:#3232FA;stroke-width:47.0591;stroke-linecap:round;stroke-linejoin:round;}
</style>
<title>404</title>
<path class="st0" d="M1041.9,371.1c480,0,480.3,192.4,480.3,192.4c0,192.4,31.8,769.1-480.3,769.1S561.3,755.5,561.3,563.1
	C561.3,563.1,561.6,371.1,1041.9,371.1z"/>
<path class="st1" d="M598.1,981.7c-13.2-50.6-101.2-425.9-295-605.6c-19.7-17.9-21.2-48.2-3.2-67.9c1.8-2.1,3.5-3.8,5.6-5.3
	c52.6-41.2,111.8-48.8,157.6-46.2c26.5,1.5,49.1-18.5,50.9-45c0.3-5.3-0.3-10.3-1.5-15.3c-11.2-40.6-17.4-91.2-1.2-135
	c9.4-25,37.1-37.4,62.1-28.2c2.4,0.9,4.4,1.8,6.5,2.9c74.7,41.2,154.4,73.8,236.8,96.8c25.6,7.1,52.1-8.2,59.1-33.8
	c0.3-0.6,0.3-1.2,0.6-1.8c7.4-30.6,22.9-58.2,45.3-80.3c17.4-17.1,44.7-18.2,63.5-3.2c72.4,57.4,181.2,127.1,234.4,160.6
	c18.2,11.5,42.1,9.4,58.2-5.3c30.6-28.5,82.4-73.5,122.9-95c19.4-10.3,43.2-6.2,57.9,10.3c341.8,383.5,19.4,922.9,19.4,922.9
	c-4.1-8.8,129.1-473.8-443.8-473.8S597.5,929.3,598.1,981.7z"/>
<path class="st1" d="M801.6,751.1c-33.2,0-60,26.8-60,60v168.2c0,33.2,26.8,60,60,60s60-26.8,60-60V811.1
	C861.6,777.8,834.6,751.1,801.6,751.1z M1282.2,751.1c-33.2,0-60,26.8-60,60v168.2c0,33.2,27.1,60,60,60c33.2,0,60-26.8,60-60V811.1
	C1342.2,777.8,1315.5,751.1,1282.2,751.1L1282.2,751.1L1282.2,751.1z"/>
<path class="st2" d="M1161.9,1185.2c-49.7-66.5-143.8-79.7-210.3-30c-11.5,8.5-21.5,18.5-30,30"/>
<g>
	<path class="st1" d="M835,1607.9c2-3.4,5.3-5.8,10.1-7.2c4.8-1.3,11.1-2,18.8-2c7.7,0,13.9,0.8,18.6,2.4c4.7,1.6,8,4.2,10,7.7
		c2,3.6,3.1,6.8,3.5,9.8c0.4,3,0.6,7.3,0.6,12.9v205c0,9.6-1.2,16.7-3.5,21.2c-2.3,4.5-5.9,7.6-10.7,9c-4.8,1.5-10.8,2.2-17.9,2.2
		c-7.1,0-12.8-0.6-17-1.8c-4.2-1.2-7.4-2.7-9.6-4.4c-2.2-1.7-3.8-4.2-4.8-7.4c-1.5-4.2-2.2-10.6-2.2-19.2v-45h-99.9
		c-17.2,0-27.4-4.7-30.6-14c-1.2-3.9-1.8-9.2-1.8-15.8c0-6.6,0.4-11.6,1.1-14.7l30.6-123.5c1.5-5.7,2.8-10,3.9-12.9
		c1.1-2.9,3.3-5.8,6.6-8.5c3.3-2.7,7.6-4.1,12.7-4.1c5.2,0,10.8,0.9,17,2.6c17.2,4.7,25.8,12.5,25.8,23.6c0,3.9-0.9,9.1-2.6,15.5
		c-0.2,0.5-0.4,0.9-0.4,1.1l-22.5,90H831v-100.6c0-5.7,0.2-9.8,0.6-12.5C831.9,1614.4,833,1611.4,835,1607.9z"/>
	<path class="st1" d="M948.6,1630.2c7.1-9.9,17.1-18.3,30-25.1c12.9-6.8,27.8-10.1,44.8-10.1c17,0,31.8,3.3,44.4,10
		c12.7,6.6,22.6,14.9,29.9,24.7c7.2,9.8,13.1,21.4,17.5,34.7c7.4,22.1,11.1,45.6,11.1,70.4c0,44.5-9.6,79.8-28.8,105.8
		c-7.1,9.8-17,17.9-29.7,24.3c-12.7,6.4-27.3,9.6-44.1,9.6c-16.7,0-31.5-3.3-44.4-9.8c-12.9-6.5-23-14.6-30.2-24.1
		c-7.3-9.6-13.2-21-17.9-34.3c-7.1-21.1-10.7-45.1-10.7-71.9c0-24.6,2.9-45.6,8.7-63C935,1653.9,941.4,1640.2,948.6,1630.2z
		 M1023,1808.8c25.3,0,38-24.1,38-72.3v-2.2c0-49.4-12.5-74.1-37.6-74.1c-25.1,0-37.6,24.8-37.6,74.3
		C985.8,1784.1,998.2,1808.8,1023,1808.8z"/>
	<path class="st1" d="M1277.4,1607.9c2-3.4,5.3-5.8,10.1-7.2c4.8-1.3,11.1-2,18.8-2s13.9,0.8,18.6,2.4c4.7,1.6,8,4.2,10,7.7
		c2,3.6,3.1,6.8,3.5,9.8c0.4,3,0.6,7.3,0.6,12.9v205c0,9.6-1.2,16.7-3.5,21.2c-2.3,4.5-5.9,7.6-10.7,9c-4.8,1.5-10.8,2.2-17.9,2.2
		c-7.1,0-12.8-0.6-17-1.8c-4.2-1.2-7.4-2.7-9.6-4.4c-2.2-1.7-3.8-4.2-4.8-7.4c-1.5-4.2-2.2-10.6-2.2-19.2v-45h-99.9
		c-17.2,0-27.4-4.7-30.6-14c-1.2-3.9-1.8-9.2-1.8-15.8c0-6.6,0.4-11.6,1.1-14.7l30.6-123.5c1.5-5.7,2.8-10,3.9-12.9
		c1.1-2.9,3.3-5.8,6.6-8.5c3.3-2.7,7.6-4.1,12.7-4.1c5.2,0,10.8,0.9,17,2.6c17.2,4.7,25.8,12.5,25.8,23.6c0,3.9-0.9,9.1-2.6,15.5
		c-0.3,0.5-0.4,0.9-0.4,1.1l-22.5,90h60.1v-100.6c0-5.7,0.2-9.8,0.6-12.5C1274.2,1614.4,1275.4,1611.4,1277.4,1607.9z"/>
	<path class="st1" d="M26.5,2004.1c-2.1-2.6-3.2-5-3.2-7.1c0-2.1,1.8-4.9,5.3-8.3c2-2,4.2-2.9,6.5-2.9c2.3,0,5.5,2,9.6,6.1
		c1.1,1.4,2.8,2.7,4.9,4c2.1,1.3,4.1,1.9,5.9,1.9c7.6,0,11.4-3.1,11.4-9.3c0-1.9-1-3.5-3.1-4.7c-2.1-1.3-4.7-2.2-7.8-2.8
		c-3.1-0.6-6.5-1.5-10.1-2.8c-3.6-1.3-7-2.8-10.1-4.5c-3.1-1.7-5.7-4.4-7.8-8.2c-2.1-3.7-3.1-8.2-3.1-13.5c0-7.2,2.7-13.5,8-18.9
		c5.4-5.4,12.7-8.1,21.9-8.1c4.9,0,9.4,0.6,13.5,1.9c4.1,1.3,6.9,2.6,8.4,3.9l3.1,2.3c2.5,2.4,3.8,4.4,3.8,6c0,1.6-1,3.9-2.9,6.8
		c-2.8,4.1-5.7,6.1-8.6,6.1c-1.7,0-3.8-0.8-6.4-2.5c-0.2-0.2-0.7-0.6-1.4-1.2c-0.7-0.7-1.3-1.2-1.9-1.6c-1.7-1.1-3.9-1.6-6.6-1.6
		c-2.7,0-4.9,0.6-6.6,1.9c-1.8,1.3-2.6,3-2.6,5.3c0,2.3,1,4.1,3.1,5.5c2.1,1.4,4.7,2.3,7.8,2.8c3.1,0.5,6.5,1.3,10.2,2.3
		c3.7,1,7.1,2.3,10.2,3.7s5.7,4,7.8,7.7c2.1,3.6,3.1,8.1,3.1,13.5s-1.1,10-3.2,14.1c-2.1,4.1-4.9,7.2-8.4,9.4
		c-6.6,4.3-13.7,6.5-21.3,6.5c-3.8,0-7.5-0.5-10.9-1.4c-3.4-0.9-6.2-2.1-8.4-3.5c-4.3-2.6-7.4-5.2-9.1-7.6L26.5,2004.1z"/>
	<path class="st1" d="M139.1,1925.6c12.1,0,22.6,4.4,31.6,13.1c8.9,8.8,13.4,19.6,13.4,32.6c0,13-4.3,24-12.8,33.2
		s-19,13.7-31.5,13.7s-23-4.5-31.8-13.5c-8.7-9-13.1-19.7-13.1-32.2c0-6.8,1.2-13.2,3.7-19.1c2.5-5.9,5.7-10.9,9.8-14.9
		c4.1-4,8.8-7.2,14.1-9.5C128,1926.7,133.4,1925.6,139.1,1925.6z M116.7,1971.9c0,7.3,2.4,13.2,7.1,17.8c4.7,4.5,10,6.8,15.8,6.8
		c5.8,0,11.1-2.2,15.7-6.6c4.7-4.4,7-10.4,7-17.8c0-7.5-2.4-13.4-7.1-17.9c-4.7-4.5-10-6.8-15.8-6.8c-5.8,0-11.1,2.3-15.7,6.8
		C119.1,1958.7,116.7,1964.6,116.7,1971.9z"/>
	<path class="st1" d="M261,2001.5c1.2,2.9,1.8,5.1,1.8,6.4c0,3.1-2.5,5.7-7.6,7.9c-2.6,1.2-4.7,1.7-6.3,1.7c-1.6,0-2.9-0.4-3.9-1.2
		c-1-0.8-1.8-1.6-2.3-2.4c-0.8-1.6-4-9-9.6-22.2l-3.8,0.3h-15.5v13.9c0,1.9-0.1,3.3-0.2,4.2c-0.1,0.9-0.5,2-1.2,3.3
		c-1.1,2.2-4.3,3.3-9.6,3.3c-5.7,0-9.1-1.5-10.1-4.5c-0.5-1.4-0.7-3.5-0.7-6.4v-68.2c0-1.9,0.1-3.3,0.2-4.2c0.1-0.9,0.5-2,1.2-3.3
		c1.1-2.2,4.3-3.3,9.6-3.3h26.5c7.2,0,14.2,2.6,21,7.9c3.3,2.5,6,6,8.1,10.3c2.1,4.3,3.2,9.2,3.2,14.5c0,9.3-3.1,16.9-9.2,22.9
		C254.4,1986.6,257.2,1993,261,2001.5z M213.8,1970.2h15.7c2.4,0,4.8-0.9,7.1-2.7c2.4-1.8,3.6-4.5,3.6-8.1s-1.2-6.3-3.6-8.2
		c-2.4-1.8-4.8-2.8-7.4-2.8h-15.5V1970.2z"/>
	<path class="st1" d="M338.5,2001.5c1.2,2.9,1.8,5.1,1.8,6.4c0,3.1-2.5,5.7-7.6,7.9c-2.6,1.2-4.7,1.7-6.3,1.7
		c-1.6,0-2.9-0.4-3.9-1.2c-1-0.8-1.8-1.6-2.3-2.4c-0.8-1.6-4-9-9.6-22.2l-3.8,0.3h-15.5v13.9c0,1.9-0.1,3.3-0.2,4.2
		c-0.1,0.9-0.5,2-1.2,3.3c-1.1,2.2-4.3,3.3-9.6,3.3c-5.7,0-9.1-1.5-10.1-4.5c-0.5-1.4-0.7-3.5-0.7-6.4v-68.2c0-1.9,0.1-3.3,0.2-4.2
		c0.1-0.9,0.5-2,1.2-3.3c1.1-2.2,4.3-3.3,9.6-3.3h26.5c7.2,0,14.2,2.6,21,7.9c3.3,2.5,6,6,8.1,10.3c2.1,4.3,3.2,9.2,3.2,14.5
		c0,9.3-3.1,16.9-9.2,22.9C332,1986.6,334.8,1993,338.5,2001.5z M291.3,1970.2h15.7c2.4,0,4.8-0.9,7.1-2.7c2.4-1.8,3.6-4.5,3.6-8.1
		s-1.2-6.3-3.6-8.2c-2.4-1.8-4.8-2.8-7.4-2.8h-15.5V1970.2z"/>
	<path class="st1" d="M416.2,1928.4c4,2.8,6,5.5,6,8.1c0,1.6-0.9,3.7-2.8,6.5l-26.5,39.7v23.5c0,1.9-0.1,3.3-0.2,4.2
		c-0.1,0.9-0.5,2-1.2,3.3c-0.7,1.2-1.8,2.1-3.3,2.6c-1.6,0.5-3.6,0.7-6.3,0.7c-2.6,0-4.7-0.2-6.3-0.7c-1.6-0.5-2.7-1.4-3.3-2.6
		c-0.7-1.3-1-2.4-1.2-3.3c-0.1-0.9-0.2-2.4-0.2-4.4v-23.2l-26.5-39.7c-1.9-2.8-2.8-5-2.8-6.5c0-2.6,1.8-5.1,5.4-7.6
		c3.6-2.4,6.2-3.6,7.7-3.6c1.6,0,2.8,0.3,3.7,1c1.4,0.9,2.9,2.6,4.4,5l19,30.5l19-30.5c1.6-2.5,2.9-4.1,4.1-4.9
		c1.1-0.8,2.5-1.2,4-1.2C410.5,1925.3,412.9,1926.3,416.2,1928.4z"/>
	<path class="st1" d="M410.2,1997.5c0.7-1.3,1.9-2.2,3.5-2.8c1.6-0.5,4.3-0.8,7.9-0.8c3.6,0,6.2,0.8,7.8,2.4
		c1.6,1.6,2.4,4.7,2.4,9.3c0,1.7-0.1,3.3-0.4,4.8c-0.7,7-3,13-6.9,18.2c-3.9,5.2-8.4,7.7-13.5,7.7c-0.6,0-1.1-0.4-1.5-1.3
		s-0.7-2-0.7-3.3c0-1.4,0.2-2.4,0.6-3.3c0.4-0.8,0.8-1.3,1.4-1.5c0.6-0.2,1.2-0.5,1.8-1c0.6-0.5,1.5-1.5,2.5-3.3
		c1.1-1.7,1.7-3.7,1.8-5.9c-2.6-0.3-4.6-1.2-6.1-2.6c-1.4-1.4-2.1-3.8-2.1-7c0-3.2,0.1-5.3,0.2-6.3
		C409.1,1999.9,409.5,1998.8,410.2,1997.5z"/>
	<path class="st1" d="M476.8,1926.5h68.3c2.6,0,4.5,0.3,5.8,0.9c1.2,0.6,2,1.6,2.5,2.9c0.4,1.3,0.6,3,0.6,5.2c0,2.1-0.2,3.8-0.6,5.1
		c-0.4,1.3-1.1,2.1-2.1,2.6c-1.5,0.7-3.6,1.1-6.3,1.1h-23.5v61.8c0,1.9-0.1,3.3-0.2,4.2c-0.1,0.9-0.5,1.9-1.1,3.1
		c-0.6,1.2-1.7,2-3.3,2.5c-1.6,0.5-3.6,0.7-6.1,0.7c-2.5,0-4.6-0.2-6.1-0.7c-1.5-0.5-2.6-1.3-3.2-2.5c-0.6-1.2-1-2.3-1.1-3.2
		c-0.1-0.9-0.2-2.4-0.2-4.2v-61.7h-23.6c-2.6,0-4.5-0.3-5.8-0.9c-1.2-0.6-2-1.6-2.5-2.9c-0.4-1.3-0.6-3-0.6-5.2s0.2-3.8,0.6-5.1
		s1.1-2.2,2.1-2.6C472,1926.9,474.1,1926.5,476.8,1926.5z"/>
	<path class="st1" d="M616.4,1930c0.7-1.2,1.8-2.1,3.3-2.6c1.6-0.5,3.5-0.7,5.9-0.7s4.3,0.2,5.7,0.6c1.4,0.4,2.5,0.9,3.2,1.5
		c0.7,0.6,1.3,1.4,1.7,2.5c0.4,1.4,0.6,3.5,0.6,6.4v68.2c0,1.9-0.1,3.3-0.2,4.2c-0.1,0.9-0.5,2-1.2,3.3c-1.1,2.2-4.3,3.3-9.6,3.3
		c-5.7,0-9.1-1.5-10.1-4.5c-0.5-1.4-0.7-3.5-0.7-6.4v-24.9h-32.6v25.1c0,1.9-0.1,3.3-0.2,4.2c-0.1,0.9-0.5,2-1.2,3.3
		c-1.1,2.2-4.3,3.3-9.6,3.3c-5.7,0-9.1-1.5-10.1-4.5c-0.5-1.4-0.7-3.5-0.7-6.4v-68.2c0-1.9,0.1-3.3,0.2-4.2c0.1-0.9,0.5-2,1.2-3.3
		c1.1-2.2,4.3-3.3,9.6-3.3c5.7,0,9.1,1.5,10.2,4.5c0.4,1.4,0.6,3.5,0.6,6.4v25.1H615v-25.2c0-1.9,0.1-3.3,0.2-4.2
		C615.3,1932.3,615.7,1931.2,616.4,1930z"/>
	<path class="st1" d="M668.3,1995h37.8c1.9,0,3.3,0.1,4.2,0.2c0.9,0.1,2,0.5,3.3,1.2c2.2,1.2,3.3,4.3,3.3,9.6
		c0,5.7-1.5,9.1-4.5,10.1c-1.4,0.5-3.5,0.7-6.4,0.7h-48.7c-5.7,0-9.1-1.6-10.1-4.7c-0.5-1.3-0.7-3.4-0.7-6.3v-68.3
		c0-4.2,0.8-7,2.3-8.5c1.6-1.5,4.5-2.3,8.8-2.3h48.4c1.9,0,3.3,0.1,4.2,0.2c0.9,0.1,2,0.5,3.3,1.2c2.2,1.2,3.3,4.3,3.3,9.6
		c0,5.7-1.5,9.1-4.5,10.1c-1.4,0.5-3.5,0.7-6.4,0.7h-37.7v12.4h24.3c1.9,0,3.3,0.1,4.2,0.2c0.9,0.1,2,0.5,3.3,1.2
		c2.2,1.2,3.3,4.3,3.3,9.6c0,5.7-1.6,9.1-4.7,10.1c-1.4,0.5-3.5,0.7-6.4,0.7h-24.1V1995z"/>
	<path class="st1" d="M793.9,2001.5c1.2,2.9,1.8,5.1,1.8,6.4c0,3.1-2.5,5.7-7.6,7.9c-2.6,1.2-4.7,1.7-6.3,1.7
		c-1.6,0-2.9-0.4-3.9-1.2c-1-0.8-1.8-1.6-2.3-2.4c-0.8-1.6-4-9-9.6-22.2l-3.8,0.3h-15.5v13.9c0,1.9-0.1,3.3-0.2,4.2
		c-0.1,0.9-0.5,2-1.2,3.3c-1.1,2.2-4.3,3.3-9.6,3.3c-5.7,0-9.1-1.5-10.1-4.5c-0.5-1.4-0.7-3.5-0.7-6.4v-68.2c0-1.9,0.1-3.3,0.2-4.2
		c0.1-0.9,0.5-2,1.2-3.3c1.1-2.2,4.3-3.3,9.6-3.3h26.5c7.2,0,14.2,2.6,21,7.9c3.3,2.5,6,6,8.1,10.3c2.1,4.3,3.2,9.2,3.2,14.5
		c0,9.3-3.1,16.9-9.2,22.9C787.4,1986.6,790.1,1993,793.9,2001.5z M746.7,1970.2h15.7c2.4,0,4.8-0.9,7.1-2.7
		c2.4-1.8,3.6-4.5,3.6-8.1s-1.2-6.3-3.6-8.2c-2.4-1.8-4.8-2.8-7.4-2.8h-15.5V1970.2z"/>
	<path class="st1" d="M824.3,1995h37.8c1.9,0,3.3,0.1,4.2,0.2c0.9,0.1,2,0.5,3.3,1.2c2.2,1.2,3.3,4.3,3.3,9.6
		c0,5.7-1.5,9.1-4.5,10.1c-1.4,0.5-3.5,0.7-6.4,0.7h-48.7c-5.7,0-9.1-1.6-10.1-4.7c-0.5-1.3-0.7-3.4-0.7-6.3v-68.3
		c0-4.2,0.8-7,2.3-8.5c1.6-1.5,4.5-2.3,8.8-2.3h48.4c1.9,0,3.3,0.1,4.2,0.2c0.9,0.1,2,0.5,3.3,1.2c2.2,1.2,3.3,4.3,3.3,9.6
		c0,5.7-1.5,9.1-4.5,10.1c-1.4,0.5-3.5,0.7-6.4,0.7h-37.7v12.4h24.3c1.9,0,3.3,0.1,4.2,0.2c0.9,0.1,2,0.5,3.3,1.2
		c2.2,1.2,3.3,4.3,3.3,9.6c0,5.7-1.6,9.1-4.7,10.1c-1.4,0.5-3.5,0.7-6.4,0.7h-24.1V1995z"/>
	<path class="st1" d="M900,1929.3c1.4,1.4,2.1,3.8,2.1,7.1v2c0,2-0.1,3.6-0.2,4.5c-0.6,7.2-2.7,13.4-6.4,18.6s-8.4,7.7-14,7.7
		c-0.6,0-1.1-0.4-1.5-1.3c-0.5-0.9-0.7-2-0.7-3.4c0-1.4,0.2-2.5,0.6-3.3c0.4-0.8,0.8-1.2,1.2-1.4c0.4-0.1,0.8-0.2,1-0.3
		c0.2,0,0.7-0.2,1.4-0.6c0.7-0.4,1.2-0.9,1.7-1.5c1.3-1.7,2-4.4,2.2-8c-2.8-0.4-4.9-1.3-6.2-2.7c-1.4-1.4-2-4.3-2-8.8
		c0-3.3,0.4-5.7,1.2-7.3c0.8-1.6,2.1-2.7,3.7-3.2c1.7-0.5,4.3-0.8,7.8-0.8C895.4,1926.7,898.1,1927.5,900,1929.3z"/>
	<path class="st1" d="M911.4,2004.1c-2.1-2.6-3.2-5-3.2-7.1c0-2.1,1.8-4.9,5.3-8.3c2-2,4.2-2.9,6.5-2.9s5.5,2,9.6,6.1
		c1.1,1.4,2.8,2.7,4.9,4c2.1,1.3,4.1,1.9,5.9,1.9c7.6,0,11.4-3.1,11.4-9.3c0-1.9-1-3.5-3.1-4.7c-2.1-1.3-4.7-2.2-7.8-2.8
		c-3.1-0.6-6.5-1.5-10.1-2.8c-3.6-1.3-7-2.8-10.1-4.5c-3.1-1.7-5.7-4.4-7.8-8.2c-2.1-3.7-3.1-8.2-3.1-13.5c0-7.2,2.7-13.5,8-18.9
		c5.4-5.4,12.7-8.1,21.9-8.1c4.9,0,9.4,0.6,13.5,1.9s6.9,2.6,8.4,3.9l3.1,2.3c2.5,2.4,3.8,4.4,3.8,6c0,1.6-1,3.9-2.9,6.8
		c-2.8,4.1-5.7,6.1-8.6,6.1c-1.7,0-3.8-0.8-6.4-2.5c-0.2-0.2-0.7-0.6-1.4-1.2c-0.7-0.7-1.3-1.2-1.9-1.6c-1.7-1.1-3.9-1.6-6.6-1.6
		c-2.7,0-4.9,0.6-6.6,1.9c-1.8,1.3-2.6,3-2.6,5.3c0,2.3,1,4.1,3.1,5.5c2.1,1.4,4.7,2.3,7.8,2.8c3.1,0.5,6.5,1.3,10.2,2.3
		c3.7,1,7.1,2.3,10.2,3.7c3.1,1.5,5.7,4,7.8,7.7c2.1,3.6,3.1,8.1,3.1,13.5s-1.1,10-3.2,14.1c-2.1,4.1-4.9,7.2-8.4,9.4
		c-6.6,4.3-13.7,6.5-21.3,6.5c-3.9,0-7.5-0.5-10.9-1.4c-3.4-0.9-6.2-2.1-8.4-3.5c-4.3-2.6-7.4-5.2-9.1-7.6L911.4,2004.1z"/>
	<path class="st1" d="M1070.9,1930.4c0.8-1.4,1.9-2.4,3.5-2.9c1.6-0.5,3.5-0.7,5.8-0.7s4.2,0.2,5.7,0.6c1.4,0.4,2.5,0.9,3.2,1.5
		c0.7,0.6,1.2,1.4,1.5,2.6c0.5,1.3,0.7,3.4,0.7,6.3v68.2c0,2-0.1,3.4-0.2,4.3c-0.1,0.9-0.5,2-1.2,3.2c-1.2,2.2-4.3,3.3-9.6,3.3
		c-3.2,0-5.4-0.2-6.6-0.7c-1.2-0.5-2.3-1.3-3.1-2.3c-18.4-24.6-30.6-40.6-36.4-48.2v40.4c0,2-0.1,3.4-0.2,4.3
		c-0.1,0.9-0.5,2-1.2,3.2c-1.1,2.2-4.3,3.3-9.6,3.3c-5.1,0-8.2-1.1-9.3-3.3c-0.7-1.2-1-2.3-1.2-3.3s-0.2-2.4-0.2-4.3v-68.6
		c0-3.1,0.4-5.4,1.2-6.8c0.8-1.4,1.9-2.4,3.5-2.9c1.6-0.5,3.6-0.7,6-0.7c2.5,0,4.4,0.2,5.8,0.7c1.4,0.4,2.4,1,3,1.5
		c0.3,0.2,1.3,1.3,2.8,3.2c17.3,23.5,28.8,39,34.7,46.6v-41.5C1069.8,1934.1,1070.2,1931.9,1070.9,1930.4z"/>
	<path class="st1" d="M1143.5,1925.6c12.1,0,22.7,4.4,31.6,13.1c8.9,8.8,13.4,19.6,13.4,32.6c0,13-4.3,24-12.8,33.2
		s-19,13.7-31.5,13.7c-12.5,0-23-4.5-31.8-13.5c-8.7-9-13.1-19.7-13.1-32.2c0-6.8,1.2-13.2,3.7-19.1c2.5-5.9,5.7-10.9,9.8-14.9
		c4.1-4,8.8-7.2,14.1-9.5C1132.4,1926.7,1137.8,1925.6,1143.5,1925.6z M1121.1,1971.9c0,7.3,2.3,13.2,7.1,17.8
		c4.7,4.5,10,6.8,15.8,6.8c5.8,0,11.1-2.2,15.7-6.6c4.7-4.4,7-10.4,7-17.8c0-7.5-2.4-13.4-7.1-17.9c-4.7-4.5-10-6.8-15.8-6.8
		c-5.8,0-11.1,2.3-15.7,6.8C1123.5,1958.7,1121.1,1964.6,1121.1,1971.9z"/>
	<path class="st1" d="M1195,1926.5h68.3c2.6,0,4.5,0.3,5.8,0.9c1.2,0.6,2,1.6,2.5,2.9c0.4,1.3,0.6,3,0.6,5.2c0,2.1-0.2,3.8-0.6,5.1
		c-0.4,1.3-1.1,2.1-2.1,2.6c-1.5,0.7-3.6,1.1-6.3,1.1h-23.5v61.8c0,1.9-0.1,3.3-0.2,4.2c-0.1,0.9-0.5,1.9-1.1,3.1
		c-0.6,1.2-1.7,2-3.3,2.5c-1.6,0.5-3.6,0.7-6.1,0.7c-2.5,0-4.6-0.2-6.1-0.7c-1.5-0.5-2.6-1.3-3.2-2.5c-0.6-1.2-1-2.3-1.1-3.2
		c-0.1-0.9-0.2-2.4-0.2-4.2v-61.7h-23.6c-2.6,0-4.5-0.3-5.8-0.9c-1.2-0.6-2.1-1.6-2.5-2.9c-0.4-1.3-0.6-3-0.6-5.2s0.2-3.8,0.6-5.1
		c0.4-1.3,1.1-2.2,2.1-2.6C1190.2,1926.9,1192.3,1926.5,1195,1926.5z"/>
	<path class="st1" d="M1334.6,1930c0.7-1.2,1.8-2.1,3.3-2.6c1.6-0.5,3.5-0.7,5.9-0.7s4.3,0.2,5.7,0.6c1.4,0.4,2.5,0.9,3.2,1.5
		c0.7,0.6,1.3,1.4,1.7,2.5c0.4,1.4,0.6,3.5,0.6,6.4v68.2c0,1.9-0.1,3.3-0.2,4.2c-0.1,0.9-0.5,2-1.2,3.3c-1.1,2.2-4.3,3.3-9.6,3.3
		c-5.7,0-9.1-1.5-10.1-4.5c-0.5-1.4-0.7-3.5-0.7-6.4v-24.9h-32.6v25.1c0,1.9-0.1,3.3-0.2,4.2c-0.1,0.9-0.5,2-1.2,3.3
		c-1.1,2.2-4.3,3.3-9.6,3.3c-5.7,0-9.1-1.5-10.1-4.5c-0.5-1.4-0.7-3.5-0.7-6.4v-68.2c0-1.9,0.1-3.3,0.2-4.2c0.1-0.9,0.5-2,1.2-3.3
		c1.2-2.2,4.3-3.3,9.6-3.3c5.7,0,9.1,1.5,10.2,4.5c0.4,1.4,0.6,3.5,0.6,6.4v25.1h32.6v-25.2c0-1.9,0.1-3.3,0.2-4.2
		C1333.5,1932.3,1333.9,1931.2,1334.6,1930z"/>
	<path class="st1" d="M1364.8,1937.5c0-1.9,0.1-3.3,0.2-4.2c0.1-0.9,0.5-2,1.2-3.3c1.2-2.2,4.3-3.3,9.6-3.3c5.7,0,9.1,1.5,10.2,4.5
		c0.4,1.4,0.6,3.5,0.6,6.4v68.3c0,2-0.1,3.4-0.2,4.3c-0.1,0.9-0.5,2-1.2,3.2c-1.2,2.2-4.3,3.3-9.6,3.3c-5.7,0-9.1-1.6-10.1-4.7
		c-0.5-1.3-0.7-3.4-0.7-6.3V1937.5z"/>
	<path class="st1" d="M1454.6,1930.4c0.8-1.4,1.9-2.4,3.5-2.9c1.6-0.5,3.5-0.7,5.8-0.7c2.3,0,4.2,0.2,5.7,0.6
		c1.4,0.4,2.5,0.9,3.2,1.5c0.7,0.6,1.2,1.4,1.5,2.6c0.5,1.3,0.7,3.4,0.7,6.3v68.2c0,2-0.1,3.4-0.2,4.3c-0.1,0.9-0.5,2-1.2,3.2
		c-1.1,2.2-4.3,3.3-9.6,3.3c-3.2,0-5.4-0.2-6.6-0.7c-1.2-0.5-2.3-1.3-3.1-2.3c-18.4-24.6-30.6-40.6-36.4-48.2v40.4
		c0,2-0.1,3.4-0.2,4.3c-0.1,0.9-0.5,2-1.2,3.2c-1.2,2.2-4.3,3.3-9.6,3.3c-5.1,0-8.2-1.1-9.3-3.3c-0.7-1.2-1-2.3-1.2-3.3
		c-0.1-1-0.2-2.4-0.2-4.3v-68.6c0-3.1,0.4-5.4,1.2-6.8c0.8-1.4,1.9-2.4,3.5-2.9c1.6-0.5,3.6-0.7,6-0.7c2.5,0,4.4,0.2,5.8,0.7
		c1.4,0.4,2.4,1,3,1.5c0.3,0.2,1.3,1.3,2.8,3.2c17.3,23.5,28.8,39,34.7,46.6v-41.5C1453.4,1934.1,1453.8,1931.9,1454.6,1930.4z"/>
	<path class="st1" d="M1531.8,1962.4h21.6c4.4,0.2,7.1,1.3,8.1,3.4c0.8,1.6,1.2,3.8,1.2,6.9v27c0,2.6-1.1,5.1-3.4,7.5
		c-6.9,7.1-17.2,10.7-31,10.7c-12.2,0-22.8-4.6-31.8-13.8c-9-9.2-13.5-20.3-13.5-33.4c0-13,4.6-23.9,13.8-32.6
		c9.2-8.7,20-13.1,32.4-13.1c9.7,0,18.8,3.2,27.4,9.6c2.2,1.6,3.3,3.5,3.3,5.5c0,2-0.9,4.3-2.8,6.9c-3.2,4.3-6.1,6.5-8.7,6.5
		c-1.6,0-4.1-1.1-7.5-3.4c-3.4-2.3-7.5-3.4-12.3-3.4c-6.2,0-11.8,2.2-16.6,6.6c-4.8,4.4-7.3,10.1-7.3,17.2s2.5,13.1,7.4,18.1
		c4.9,5,10.5,7.4,16.7,7.4c4.5,0,8.6-0.7,12.2-2.2v-13.4h-9.7c-2.5,0-4.3-0.3-5.4-1c-1.1-0.7-1.8-1.6-2.1-2.9
		c-0.3-1.3-0.5-3-0.5-5.2s0.2-3.9,0.6-5.2c0.4-1.3,1-2.2,2-2.7C1527.4,1962.8,1529.3,1962.4,1531.8,1962.4z"/>
	<path class="st1" d="M1659.3,1930c0.7-1.2,1.8-2.1,3.3-2.6c1.6-0.5,3.5-0.7,5.9-0.7s4.3,0.2,5.7,0.6c1.4,0.4,2.5,0.9,3.2,1.5
		c0.7,0.6,1.3,1.4,1.7,2.5c0.4,1.4,0.6,3.5,0.6,6.4v68.2c0,1.9-0.1,3.3-0.2,4.2c-0.1,0.9-0.5,2-1.2,3.3c-1.1,2.2-4.3,3.3-9.6,3.3
		c-5.7,0-9.1-1.5-10.1-4.5c-0.5-1.4-0.7-3.5-0.7-6.4v-24.9h-32.6v25.1c0,1.9-0.1,3.3-0.2,4.2c-0.1,0.9-0.5,2-1.2,3.3
		c-1.2,2.2-4.3,3.3-9.6,3.3c-5.7,0-9.1-1.5-10.1-4.5c-0.5-1.4-0.7-3.5-0.7-6.4v-68.2c0-1.9,0.1-3.3,0.2-4.2c0.1-0.9,0.5-2,1.2-3.3
		c1.1-2.2,4.3-3.3,9.6-3.3c5.7,0,9.1,1.5,10.2,4.5c0.4,1.4,0.6,3.5,0.6,6.4v25.1h32.6v-25.2c0-1.9,0.1-3.3,0.2-4.2
		C1658.3,1932.3,1658.7,1931.2,1659.3,1930z"/>
	<path class="st1" d="M1711.3,1995h37.8c1.9,0,3.3,0.1,4.2,0.2c0.9,0.1,2,0.5,3.3,1.2c2.2,1.2,3.3,4.3,3.3,9.6
		c0,5.7-1.5,9.1-4.5,10.1c-1.4,0.5-3.5,0.7-6.4,0.7h-48.7c-5.7,0-9.1-1.6-10.1-4.7c-0.5-1.3-0.7-3.4-0.7-6.3v-68.3
		c0-4.2,0.8-7,2.3-8.5c1.6-1.5,4.5-2.3,8.8-2.3h48.4c1.9,0,3.3,0.1,4.2,0.2c0.9,0.1,2,0.5,3.3,1.2c2.2,1.2,3.3,4.3,3.3,9.6
		c0,5.7-1.5,9.1-4.5,10.1c-1.4,0.5-3.5,0.7-6.4,0.7h-37.7v12.4h24.3c1.9,0,3.3,0.1,4.2,0.2c0.9,0.1,2,0.5,3.3,1.2
		c2.2,1.2,3.3,4.3,3.3,9.6c0,5.7-1.6,9.1-4.7,10.1c-1.4,0.5-3.5,0.7-6.4,0.7h-24.1V1995z"/>
	<path class="st1" d="M1836.9,2001.5c1.2,2.9,1.8,5.1,1.8,6.4c0,3.1-2.5,5.7-7.6,7.9c-2.6,1.2-4.7,1.7-6.3,1.7
		c-1.6,0-2.9-0.4-3.9-1.2c-1-0.8-1.8-1.6-2.3-2.4c-0.8-1.6-4-9-9.6-22.2l-3.8,0.3h-15.5v13.9c0,1.9-0.1,3.3-0.2,4.2
		c-0.1,0.9-0.5,2-1.2,3.3c-1.2,2.2-4.3,3.3-9.6,3.3c-5.7,0-9.1-1.5-10.1-4.5c-0.5-1.4-0.7-3.5-0.7-6.4v-68.2c0-1.9,0.1-3.3,0.2-4.2
		c0.1-0.9,0.5-2,1.2-3.3c1.2-2.2,4.3-3.3,9.6-3.3h26.5c7.2,0,14.2,2.6,21,7.9c3.3,2.5,6,6,8.1,10.3c2.1,4.3,3.2,9.2,3.2,14.5
		c0,9.3-3.1,16.9-9.2,22.9C1830.3,1986.6,1833.1,1993,1836.9,2001.5z M1789.7,1970.2h15.7c2.4,0,4.8-0.9,7.1-2.7
		c2.4-1.8,3.6-4.5,3.6-8.1s-1.2-6.3-3.6-8.2c-2.4-1.8-4.8-2.8-7.4-2.8h-15.5V1970.2z"/>
	<path class="st1" d="M1867.2,1995h37.8c1.9,0,3.3,0.1,4.2,0.2c0.9,0.1,2,0.5,3.3,1.2c2.2,1.2,3.3,4.3,3.3,9.6
		c0,5.7-1.5,9.1-4.5,10.1c-1.4,0.5-3.5,0.7-6.4,0.7h-48.7c-5.7,0-9.1-1.6-10.1-4.7c-0.5-1.3-0.7-3.4-0.7-6.3v-68.3
		c0-4.2,0.8-7,2.3-8.5c1.6-1.5,4.5-2.3,8.8-2.3h48.4c1.9,0,3.3,0.1,4.2,0.2c0.9,0.1,2,0.5,3.3,1.2c2.2,1.2,3.3,4.3,3.3,9.6
		c0,5.7-1.5,9.1-4.5,10.1c-1.4,0.5-3.5,0.7-6.4,0.7h-37.7v12.4h24.3c1.9,0,3.3,0.1,4.2,0.2c0.9,0.1,2,0.5,3.3,1.2
		c2.2,1.2,3.3,4.3,3.3,9.6c0,5.7-1.6,9.1-4.7,10.1c-1.4,0.5-3.5,0.7-6.4,0.7h-24.1V1995z"/>
	<path class="st1" d="M1965.1,1954.7c4.2,0,7.1,0.8,8.7,2.5c1.6,1.6,2.4,4.7,2.4,9.2c-0.1,2-0.2,3.4-0.3,4.4
		c-0.1,0.9-0.6,2.1-1.3,3.4c-1.2,2.4-4.3,3.6-9.3,3.6c-5,0-8.2-0.8-9.8-2.4c-1.6-1.6-2.4-4.7-2.4-9.3c0-4.8,0.9-7.8,2.6-9.1
		C1957.8,1955.4,1960.9,1954.7,1965.1,1954.7z M1965.1,1993.9c4.2,0,7.1,0.8,8.7,2.4c1.6,1.6,2.4,4.7,2.4,9.3
		c-0.1,2-0.2,3.4-0.3,4.4c-0.1,0.9-0.6,2.1-1.3,3.4c-1.2,2.4-4.3,3.6-9.3,3.6c-5,0-8.2-0.8-9.8-2.4c-1.6-1.6-2.4-4.7-2.4-9.3
		c0-4.8,0.9-7.8,2.6-9.1C1957.8,1994.6,1960.9,1993.9,1965.1,1993.9z"/>
	<path class="st1" d="M2006.7,2018c1.5,3.6,3.2,6.3,4.9,8.1c1.8,1.8,3.4,2.8,5,2.8c1.6,0,2.7,0,3.4,0.1c0.7,0.1,1.5,0.4,2.3,0.9
		c0.9,0.5,1.5,1.3,1.8,2.5s0.6,2.7,0.6,4.5s-0.2,3.4-0.6,4.5c-0.4,1.1-1,1.9-1.9,2.4c-1.4,0.7-3.2,1-5.5,1c-5.6,0-10.6-1.9-15.1-5.8
		c-4.5-3.9-8-8.9-10.6-15.1c-5.3-12.6-8-26.1-8-40.6c0-14.3,2.5-27.8,7.6-40.3c2.6-6.4,6.2-11.6,10.7-15.5c4.5-4,9.7-6,15.5-6
		c2.5,0,4.2,0.3,5.3,0.9c1.7,1.1,2.6,3.4,2.6,7.1c0,3.8-0.7,6.1-2.2,6.9c-1.1,0.7-2.8,1-5,1h-0.7c-3.2,0-6.5,3.6-9.8,10.9
		c-1.6,3.5-2.8,8.3-3.9,14.4c-1,6.1-1.5,12.9-1.5,20.5s0.5,14.3,1.5,20.4C2003.9,2009.7,2005.1,2014.5,2006.7,2018z"/>
</g>
</svg>
