<?xml version="1.0" encoding="utf-8"?>
<!-- Generator: Adobe Illustrator 19.2.0, SVG Export Plug-In . SVG Version: 6.00 Build 0)  -->
<svg version="1.1" id="Email" xmlns="http://www.w3.org/2000/svg" xmlns:xlink="http://www.w3.org/1999/xlink" x="0px" y="0px"
	 viewBox="0 0 72 72" style="enable-background:new 0 0 72 72;" xml:space="preserve">
<style type="text/css">
	.st0{fill:#FFFFFF;}
	.st1{opacity:0.75;fill:none;stroke:#FFFFFF;stroke-width:6;stroke-linejoin:round;enable-background:new    ;}
</style>
<title>Mail</title>
<path class="st0" d="M64,18c1.1,0,2,0.9,2,2v32c0,1.1-0.9,2-2,2H8c-1.1,0-2-0.9-2-2V20c0-1.1,0.9-2,2-2H64 M64,12H8
	c-4.4,0-8,3.6-8,8v32c0,4.4,3.6,8,8,8h56c4.4,0,8-3.6,8-8V20C72,15.6,68.4,12,64,12L64,12z"/>
<path id="_75" class="st1" d="M4.3,19.7L36,43l31.7-23.3"/>
</svg>
