<?xml version="1.0" encoding="utf-8"?>
<!-- Generator: Adobe Illustrator 19.2.0, SVG Export Plug-In . SVG Version: 6.00 Build 0)  -->
<svg version="1.1" id="Layer_1" xmlns="http://www.w3.org/2000/svg" xmlns:xlink="http://www.w3.org/1999/xlink" x="0px" y="0px"
	 viewBox="0 0 64 64" style="enable-background:new 0 0 64 64;" xml:space="preserve">
<style type="text/css">
	.st0{fill:#003399;}
</style>
<title>Links</title>
<path class="st0" d="M32,0C14.3,0,0,14.3,0,32c0,5.7,1.5,11.3,4.4,16.2l19.9-19.9l-8.9-8.9c-0.8-0.8-0.8-2,0-2.8
	c0.4-0.4,0.9-0.6,1.4-0.6H44c2.2,0,4,1.8,4,4v27.2c0,1.1-0.9,2-2,2c-0.5,0-1-0.2-1.4-0.6l-8.9-8.9L15.8,59.6
	c15.2,9,34.8,3.9,43.8-11.3s3.9-34.8-11.3-43.8C43.3,1.5,37.7,0,32,0z"/>
</svg>
