<?xml version="1.0" encoding="utf-8"?>
<!-- Generator: Adobe Illustrator 19.2.0, SVG Export Plug-In . SVG Version: 6.00 Build 0)  -->
<svg version="1.1" id="Layer_1" xmlns="http://www.w3.org/2000/svg" xmlns:xlink="http://www.w3.org/1999/xlink" x="0px" y="0px"
	 viewBox="0 0 64 64" style="enable-background:new 0 0 64 64;" xml:space="preserve">
<style type="text/css">
	.st0{fill:#003399;}
</style>
<title>Links</title>
<path class="st0" d="M16,18v28c0,1.1,0.9,2,2,2h28c1.1,0,2-0.9,2-2V18c0-1.1-0.9-2-2-2H18C16.9,16,16,16.9,16,18z M44,40H20V20h24
	V40z"/>
<path class="st0" d="M8,52V40H0v12c0,6.6,5.4,12,12,12h12v-8H12C9.8,56,8,54.2,8,52z"/>
<path class="st0" d="M12,8h12V0H12C5.4,0,0,5.4,0,12v12h8V12C8,9.8,9.8,8,12,8z"/>
<path class="st0" d="M52,0H40v8h12c2.2,0,4,1.8,4,4v12h8V12C64,5.4,58.6,0,52,0z"/>
<path class="st0" d="M52,56H40v8h12c6.6,0,12-5.4,12-12V40h-8v12C56,54.2,54.2,56,52,56z"/>
</svg>
