<?xml version="1.0" encoding="utf-8"?>
<!-- Generator: Adobe Illustrator 19.2.0, SVG Export Plug-In . SVG Version: 6.00 Build 0)  -->
<svg version="1.1" id="Twitter" xmlns="http://www.w3.org/2000/svg" xmlns:xlink="http://www.w3.org/1999/xlink" x="0px" y="0px"
	 viewBox="0 0 80 80" style="enable-background:new 0 0 80 80;" xml:space="preserve">
<style type="text/css">
	.st0{opacity:0.75;fill:#FFFFFF;enable-background:new    ;}
	.st1{fill:#FFFFFF;}
</style>
<title>Twitter</title>
<path id="_75" class="st0" d="M40,29c-5.9,0-22.4-6.2-29.8-14.2c-0.7-0.7-1.8-0.7-2.5-0.1c-0.2,0.2-0.4,0.4-0.5,0.7
	C5,21.9,7.4,29.1,13.1,33c-1.5,0-2.9-0.3-4.3-0.8c-0.9-0.4-1.9,0-2.2,0.9c-0.1,0.3-0.2,0.7-0.1,1.1c1.2,6,5.9,10.7,11.8,11.9
	c-1.3,0.4-2.6,0.5-4,0.5l0,0c-1,0-1.8,0.7-1.8,1.7c0,0.3,0.1,0.6,0.2,0.9c2.7,4.7,7.7,7.6,13.1,7.7v3l20-1l8-5l5-10l-4-19H40V29z"/>
<path id="_100" class="st1" d="M26.5,70c-7,0-13.8-1.7-20-5c-0.4-0.2-0.6-0.7-0.4-1.2c0.2-0.3,0.5-0.5,0.8-0.5l0,0
	c6.9,0.1,13.6-2.2,19.1-6.4c2.8,0,6.1,0,7,0c4.2,0,18-2.5,18-14s-9.5-14-11-14c-0.5-1.2-0.7-2.5-0.8-3.9c0-8.3,6.7-15.1,15.1-15.1
	c4.2,0,8.2,1.7,11.1,4.8c2.3,3,3.7,6.5,4.1,10.2c0,0.7,0,1.3,0,2C69.5,46.9,54.3,70,26.5,70z"/>
<path id="_75-2" class="st0" d="M65.4,14.8c2.4-0.5,4.7-1.2,6.9-2.3c0.5-0.3,1.2,0,1.4,0.5c0.2,0.3,0.1,0.7,0,1
	c-1.3,2.2-3.1,4.1-5.4,5.5c1.8-0.2,3.6-0.6,5.3-1.1c0.6-0.2,1.2,0.1,1.3,0.7c0.1,0.4,0,0.7-0.2,1c-1.6,1.8-3.3,3.5-5.3,4.9
	c-2.8,2.2-8.4,3.3-8.4,3.3l-3.7-12.9C60,15.3,62.7,15.1,65.4,14.8z"/>
</svg>
