<?xml version="1.0" standalone="no"?>
<!DOCTYPE svg PUBLIC "-//W3C//DTD SVG 20010904//EN"
 "http://www.w3.org/TR/2001/REC-SVG-20010904/DTD/svg10.dtd">
<svg version="1.0" xmlns="http://www.w3.org/2000/svg"
 width="700.000000pt" height="700.000000pt" viewBox="0 0 700.000000 700.000000"
 preserveAspectRatio="xMidYMid meet">
<metadata>
Created by potrace 1.11, written by Peter Selinger 2001-2013
</metadata>
<g transform="translate(0.000000,700.000000) scale(0.100000,-0.100000)"
fill="#000000" stroke="none">
<path d="M3975 6009 c-73 -10 -96 -15 -149 -33 -44 -15 -124 -54 -136 -66 -3
-3 -23 -18 -45 -35 -64 -47 -3377 -3365 -3413 -3418 -179 -260 -154 -607 60
-828 88 -91 161 -136 290 -178 104 -34 284 -33 385 3 54 19 141 64 183 94 19
14 531 521 1138 1126 l1102 1101 0 -865 c1 -476 3 -883 6 -905 32 -265 206
-471 472 -558 l67 -22 1090 0 c1028 0 1094 1 1155 18 188 54 325 165 419 341
74 137 90 339 40 495 -61 187 -223 356 -399 415 -112 38 -134 39 -835 41 -379
1 -693 3 -696 4 -3 0 -6 603 -6 1339 0 735 -3 1355 -7 1377 -6 38 -21 93 -33
125 -4 8 -7 17 -7 21 -1 3 -16 35 -35 73 -43 84 -152 197 -241 249 -65 38
-199 83 -255 86 -16 1 -46 3 -65 4 -19 2 -57 0 -85 -4z"/>
</g>
</svg>
