<?xml version="1.0" encoding="utf-8"?>
<!-- Generator: Adobe Illustrator 19.0.0, SVG Export Plug-In . SVG Version: 6.00 Build 0)  -->
<svg version="1.1" id="Layer_1" xmlns="http://www.w3.org/2000/svg" xmlns:xlink="http://www.w3.org/1999/xlink" x="0px" y="0px"
	 viewBox="-223 25 512 512" style="enable-background:new -223 25 512 512;" xml:space="preserve">
<style type="text/css">
	.st0{fill-rule:evenodd;clip-rule:evenodd;}
</style>
<path class="st0" d="M129.5,352.5c0,0-71.2,0-80,0c-8.8,0-16-7.2-16-16c0-5.2,0-43.1,0-73.4C1.7,295-46.9,343.5-51.2,347.8
	c-6.2,6.2-16.4,6.2-22.6,0c-6.2-6.2-6.2-16.4,0-22.6c6.2-6.2,105.8-105.8,112-112s16.4-6.2,22.6,0c3.1,3.1,4.7,7.2,4.7,11.3l0,0v96
	h64c8.8,0,16,7.2,16,16C145.5,345.3,138.3,352.5,129.5,352.5z"/>
</svg>
