<svg id="Dribbble" xmlns="http://www.w3.org/2000/svg" viewBox="0 0 256 256"><defs><style>.cls-1{fill:#fa5783;}.cls-2{fill:#4750b5;}</style></defs><title>MediaIcons</title><circle class="cls-1" cx="128" cy="128" r="88"/><path class="cls-2" d="M136,103.63A87.84,87.84,0,0,0,195.88,72a88.53,88.53,0,0,0-11.35-11.43,71.9,71.9,0,0,1-48.53,27V40.37c-2.64-.24-5.3-.37-8-.37s-5.36.13-8,.37V87.55a71.9,71.9,0,0,1-48.53-27A88.53,88.53,0,0,0,60.12,72,87.84,87.84,0,0,0,120,103.63V120H40.37c-.24,2.64-.37,5.3-.37,8s.13,5.36.37,8H120v16.37A87.84,87.84,0,0,0,60.12,184a88.54,88.54,0,0,0,11.35,11.43,71.9,71.9,0,0,1,48.53-27v47.18c2.64.24,5.3.37,8,.37s5.36-.13,8-.37V168.45a71.9,71.9,0,0,1,48.53,27A88.54,88.54,0,0,0,195.88,184,87.84,87.84,0,0,0,136,152.37V136h79.63c.24-2.64.37-5.3.37-8s-.13-5.36-.37-8H136Z"/></svg>