<svg xmlns="http://www.w3.org/2000/svg" viewBox="0 0 256 256"><defs><style>.cls-1{fill:#bbe7fa;}.cls-2{fill:#fa5783;}</style></defs><title>MediaIcons</title><g id="Gmail"><rect class="cls-1" x="40" y="64" width="176" height="128" rx="16" ry="16"/><path class="cls-2" d="M56,64h0a0,0,0,0,1,0,0V192a0,0,0,0,1,0,0h0a16,16,0,0,1-16-16V80A16,16,0,0,1,56,64Z"/><path class="cls-2" d="M200,64h0a16,16,0,0,1,16,16v96a16,16,0,0,1-16,16h0a0,0,0,0,1,0,0V64A0,0,0,0,1,200,64Z"/><path class="cls-2" d="M211.31,68.69a16,16,0,0,0-22.63,0L128,129.37,67.31,68.69a16,16,0,0,0-22.63,0l72,72a16,16,0,0,0,22.63,0Z"/></g></svg>