<svg xmlns="http://www.w3.org/2000/svg" viewBox="0 0 256 256"><defs><style>.cls-1{fill:#57aefa;}.cls-2{fill:#bbe7fa;}</style></defs><title>MediaIcons</title><g id="Twitter"><path class="cls-1" d="M187,114.62C186.56,167,159.6,200,120.33,200,87,200,60.18,179.21,54.7,160.24a4,4,0,0,1,5-5c48,14.28,20.65-22.93,20.65-41.93A53.33,53.33,0,0,1,133,60C162.9,59.66,187.24,84.77,187,114.62Z"/><path class="cls-1" d="M167,140l43.35-16.25a4,4,0,0,0,0-7.49L167,100Z"/><path class="cls-2" d="M64.4,141.13a8,8,0,0,1,10.45-4.33l-14.78-6.12a8,8,0,0,1,6.12-14.78l-14.78-6.12A8,8,0,1,1,57.53,95l66.52,27.55a24,24,0,1,1-18.37,44.35l-37-15.31A8,8,0,0,1,64.4,141.13Z"/></g></svg>